
<svg width="32" height="32" viewBox="0 0 32 32" fill="none" xmlns="http://www.w3.org/2000/svg">
<rect width="32" height="32" rx="3" fill="#0d58ad"/>
<path d="M8.5 22V21.1778H8.87092C9.16766 21.1778 9.43472 21.1604 9.67211 21.1254C9.87982 21.102 10.0035 21.0729 10.043 21.0379C10.0826 20.9913 10.1024 20.8688 10.1024 20.6706V10.8222H8.5V10H11.7938C11.9224 10 12.0163 10.0058 12.0757 10.0175C12.135 10.0292 12.1993 10.07 12.2685 10.1399C12.3378 10.1983 12.3971 10.2974 12.4466 10.4373L16.0074 19.691L19.5683 10.4373C19.6474 10.2391 19.7265 10.1166 19.8056 10.07C19.8947 10.0233 20.0331 10 20.2211 10H23.5V10.8222H21.8976V21.1778H23.5V22C23.1439 21.965 22.2982 21.9475 20.9629 21.9475C19.6375 21.9475 18.7967 21.965 18.4407 22V21.1778H20.043V10.8222H20.0282L15.8887 21.5802C15.7799 21.8601 15.6217 22 15.4139 22C15.2062 22 15.048 21.8542 14.9392 21.5627L10.9036 11.0496H10.8887V20.6706C10.8887 20.8688 10.9085 20.9913 10.9481 21.0379C10.9876 21.0729 11.1162 21.102 11.3338 21.1254C11.6009 21.1604 11.863 21.1778 12.1202 21.1778H12.4911V22C12.0856 21.965 11.4179 21.9475 10.4881 21.9475C9.53858 21.9475 8.87587 21.965 8.5 22Z" fill="white"/>
<path d="M7 27L3 16L7 5" stroke="white" stroke-linecap="round" stroke-linejoin="round"/>
<path d="M25 27L29 16L25 5" stroke="white" stroke-linecap="round" stroke-linejoin="round"/>
</svg>
